<mxfile host="app.diagrams.net" modified="2022-06-08T06:26:25.306Z" agent="5.0 (Windows NT 10.0; Win64; x64) AppleWebKit/537.36 (KHTML, like Gecko) Chrome/102.0.5005.63 Safari/537.36" etag="hjbUp75joWCGsegfjysf" version="19.0.2" type="github">
  <diagram id="mJXMngCn8U6e5huGNDnx" name="第1頁">
    <mxGraphModel dx="1422" dy="762" grid="1" gridSize="10" guides="1" tooltips="1" connect="1" arrows="1" fold="1" page="1" pageScale="1" pageWidth="827" pageHeight="1169" math="0" shadow="0">
      <root>
        <mxCell id="0" />
        <mxCell id="1" parent="0" />
        <mxCell id="FuBq1wFrqD6DEQ1ZKTnT-1" value="opt" style="shape=umlFrame;tabWidth=110;tabHeight=30;tabPosition=left;html=1;boundedLbl=1;labelInHeader=1;width=140;height=30;swimlaneFillColor=none;" parent="1" vertex="1">
          <mxGeometry x="180" y="840" width="600" height="720" as="geometry" />
        </mxCell>
        <mxCell id="FuBq1wFrqD6DEQ1ZKTnT-2" value="loop" style="shape=umlFrame;tabWidth=110;tabHeight=30;tabPosition=left;html=1;boundedLbl=1;labelInHeader=1;width=80;height=26;fillColor=#f5f5f5;fontColor=#333333;strokeColor=#662966;swimlaneFillColor=#D1D1D1;" parent="FuBq1wFrqD6DEQ1ZKTnT-1" vertex="1">
          <mxGeometry x="100" y="126.49090909090908" width="459.32" height="85.27379679144386" as="geometry" />
        </mxCell>
        <mxCell id="FuBq1wFrqD6DEQ1ZKTnT-3" value="[more item]" style="text;fillColor=#f5f5f5;fontColor=#333333;strokeColor=none;" parent="FuBq1wFrqD6DEQ1ZKTnT-2" vertex="1">
          <mxGeometry width="100" height="20" relative="1" as="geometry">
            <mxPoint x="20" y="40" as="offset" />
          </mxGeometry>
        </mxCell>
        <mxCell id="FuBq1wFrqD6DEQ1ZKTnT-4" value="[select=1]" style="text" parent="FuBq1wFrqD6DEQ1ZKTnT-1" vertex="1">
          <mxGeometry width="100" height="20" relative="1" as="geometry">
            <mxPoint x="20" y="40" as="offset" />
          </mxGeometry>
        </mxCell>
        <mxCell id="FuBq1wFrqD6DEQ1ZKTnT-5" value="[select=2]" style="line;strokeWidth=1;dashed=1;labelPosition=center;verticalLabelPosition=bottom;align=left;verticalAlign=top;spacingLeft=20;spacingTop=15;" parent="FuBq1wFrqD6DEQ1ZKTnT-1" vertex="1">
          <mxGeometry y="350.27027027027026" width="600" height="9.729729729729728" as="geometry" />
        </mxCell>
        <mxCell id="FuBq1wFrqD6DEQ1ZKTnT-6" value="[select=3]" style="line;strokeWidth=1;dashed=1;labelPosition=center;verticalLabelPosition=bottom;align=left;verticalAlign=top;spacingLeft=20;spacingTop=15;" parent="FuBq1wFrqD6DEQ1ZKTnT-1" vertex="1">
          <mxGeometry y="554.5945945945945" width="600" height="9.729729729729728" as="geometry" />
        </mxCell>
        <mxCell id="FuBq1wFrqD6DEQ1ZKTnT-7" value="" style="endArrow=none;startArrow=none;endFill=0;startFill=0;endSize=8;html=1;verticalAlign=bottom;dashed=1;labelBackgroundColor=none;rounded=0;" parent="FuBq1wFrqD6DEQ1ZKTnT-1" edge="1">
          <mxGeometry x="-0.5" y="50" width="160" relative="1" as="geometry">
            <mxPoint x="224" y="721.9251336898395" as="sourcePoint" />
            <mxPoint x="223.55195283714076" y="-28.235294117647058" as="targetPoint" />
            <mxPoint as="offset" />
          </mxGeometry>
        </mxCell>
        <mxCell id="FuBq1wFrqD6DEQ1ZKTnT-8" value="" style="html=1;verticalAlign=bottom;labelBackgroundColor=none;endArrow=block;endFill=1;rounded=0;" parent="FuBq1wFrqD6DEQ1ZKTnT-1" target="FuBq1wFrqD6DEQ1ZKTnT-45" edge="1">
          <mxGeometry width="160" relative="1" as="geometry">
            <mxPoint x="223.72881355932202" y="28.21621621621621" as="sourcePoint" />
            <mxPoint x="497.7966101694915" y="27.758346581875962" as="targetPoint" />
          </mxGeometry>
        </mxCell>
        <mxCell id="FuBq1wFrqD6DEQ1ZKTnT-9" value="inputOrder( )" style="edgeLabel;html=1;align=center;verticalAlign=middle;resizable=0;points=[];" parent="FuBq1wFrqD6DEQ1ZKTnT-8" vertex="1" connectable="0">
          <mxGeometry x="0.1503" y="4" relative="1" as="geometry">
            <mxPoint x="-14" y="-6" as="offset" />
          </mxGeometry>
        </mxCell>
        <mxCell id="FuBq1wFrqD6DEQ1ZKTnT-10" value="" style="html=1;verticalAlign=bottom;labelBackgroundColor=none;endArrow=block;endFill=1;dashed=1;rounded=0;" parent="FuBq1wFrqD6DEQ1ZKTnT-1" edge="1">
          <mxGeometry width="160" relative="1" as="geometry">
            <mxPoint x="497.7966101694915" y="57.27186009538951" as="sourcePoint" />
            <mxPoint x="223.72881355932202" y="57.27186009538951" as="targetPoint" />
          </mxGeometry>
        </mxCell>
        <mxCell id="FuBq1wFrqD6DEQ1ZKTnT-11" value="newOrder" style="edgeLabel;html=1;align=center;verticalAlign=middle;resizable=0;points=[];" parent="FuBq1wFrqD6DEQ1ZKTnT-10" vertex="1" connectable="0">
          <mxGeometry x="-0.128" relative="1" as="geometry">
            <mxPoint x="1" y="-13" as="offset" />
          </mxGeometry>
        </mxCell>
        <mxCell id="FuBq1wFrqD6DEQ1ZKTnT-12" value="" style="html=1;verticalAlign=bottom;labelBackgroundColor=none;endArrow=block;endFill=1;rounded=0;entryX=0.47;entryY=0.188;entryDx=0;entryDy=0;entryPerimeter=0;" parent="FuBq1wFrqD6DEQ1ZKTnT-1" target="FuBq1wFrqD6DEQ1ZKTnT-45" edge="1">
          <mxGeometry width="160" relative="1" as="geometry">
            <mxPoint x="223.72881355932202" y="84.93481717011129" as="sourcePoint" />
            <mxPoint x="497.7966101694915" y="84.93481717011129" as="targetPoint" />
          </mxGeometry>
        </mxCell>
        <mxCell id="FuBq1wFrqD6DEQ1ZKTnT-13" value="getCustomer(customerID, customerName)" style="edgeLabel;html=1;align=center;verticalAlign=middle;resizable=0;points=[];" parent="FuBq1wFrqD6DEQ1ZKTnT-12" vertex="1" connectable="0">
          <mxGeometry x="0.1503" y="4" relative="1" as="geometry">
            <mxPoint x="-17" y="-6" as="offset" />
          </mxGeometry>
        </mxCell>
        <mxCell id="FuBq1wFrqD6DEQ1ZKTnT-14" value="" style="html=1;verticalAlign=bottom;labelBackgroundColor=none;endArrow=block;endFill=1;dashed=1;rounded=0;" parent="FuBq1wFrqD6DEQ1ZKTnT-1" source="FuBq1wFrqD6DEQ1ZKTnT-45" edge="1">
          <mxGeometry width="160" relative="1" as="geometry">
            <mxPoint x="497.7966101694915" y="115.42130365659779" as="sourcePoint" />
            <mxPoint x="223.72881355932202" y="115.42130365659779" as="targetPoint" />
          </mxGeometry>
        </mxCell>
        <mxCell id="FuBq1wFrqD6DEQ1ZKTnT-15" value="customer" style="edgeLabel;html=1;align=center;verticalAlign=middle;resizable=0;points=[];fontSize=11;" parent="FuBq1wFrqD6DEQ1ZKTnT-14" vertex="1" connectable="0">
          <mxGeometry x="-0.128" relative="1" as="geometry">
            <mxPoint x="-13" y="-13" as="offset" />
          </mxGeometry>
        </mxCell>
        <mxCell id="FuBq1wFrqD6DEQ1ZKTnT-16" value="" style="html=1;verticalAlign=bottom;labelBackgroundColor=none;endArrow=block;endFill=1;rounded=0;" parent="FuBq1wFrqD6DEQ1ZKTnT-1" target="FuBq1wFrqD6DEQ1ZKTnT-45" edge="1">
          <mxGeometry width="160" relative="1" as="geometry">
            <mxPoint x="223.72881355932202" y="151.78779014308418" as="sourcePoint" />
            <mxPoint x="497.7966101694915" y="151.78779014308418" as="targetPoint" />
          </mxGeometry>
        </mxCell>
        <mxCell id="FuBq1wFrqD6DEQ1ZKTnT-17" value="addItem(bookID, quantity)" style="edgeLabel;html=1;align=center;verticalAlign=middle;resizable=0;points=[];labelBackgroundColor=#F5F5F5;fontSize=12;" parent="FuBq1wFrqD6DEQ1ZKTnT-16" vertex="1" connectable="0">
          <mxGeometry x="0.1503" y="4" relative="1" as="geometry">
            <mxPoint x="-17" y="-6" as="offset" />
          </mxGeometry>
        </mxCell>
        <mxCell id="FuBq1wFrqD6DEQ1ZKTnT-18" value="" style="html=1;verticalAlign=bottom;labelBackgroundColor=none;endArrow=block;endFill=1;dashed=1;rounded=0;" parent="FuBq1wFrqD6DEQ1ZKTnT-1" source="FuBq1wFrqD6DEQ1ZKTnT-45" edge="1">
          <mxGeometry width="160" relative="1" as="geometry">
            <mxPoint x="497.7966101694915" y="186.80833068362466" as="sourcePoint" />
            <mxPoint x="223.72881355932202" y="186.80833068362466" as="targetPoint" />
          </mxGeometry>
        </mxCell>
        <mxCell id="FuBq1wFrqD6DEQ1ZKTnT-19" value="orderItem" style="edgeLabel;html=1;align=center;verticalAlign=middle;resizable=0;points=[];labelBackgroundColor=#F5F5F5;" parent="FuBq1wFrqD6DEQ1ZKTnT-18" vertex="1" connectable="0">
          <mxGeometry x="-0.128" relative="1" as="geometry">
            <mxPoint x="-13" y="-13" as="offset" />
          </mxGeometry>
        </mxCell>
        <mxCell id="FuBq1wFrqD6DEQ1ZKTnT-20" value="" style="html=1;verticalAlign=bottom;labelBackgroundColor=none;endArrow=block;endFill=1;rounded=0;" parent="FuBq1wFrqD6DEQ1ZKTnT-1" target="FuBq1wFrqD6DEQ1ZKTnT-45" edge="1">
          <mxGeometry width="160" relative="1" as="geometry">
            <mxPoint x="223.72881355932202" y="225.73373608903017" as="sourcePoint" />
            <mxPoint x="497.7966101694915" y="225.73373608903017" as="targetPoint" />
          </mxGeometry>
        </mxCell>
        <mxCell id="FuBq1wFrqD6DEQ1ZKTnT-21" value="checkOrderItem(orderItem)" style="edgeLabel;html=1;align=center;verticalAlign=middle;resizable=0;points=[];" parent="FuBq1wFrqD6DEQ1ZKTnT-20" vertex="1" connectable="0">
          <mxGeometry x="0.1503" y="4" relative="1" as="geometry">
            <mxPoint x="-17" y="-6" as="offset" />
          </mxGeometry>
        </mxCell>
        <mxCell id="FuBq1wFrqD6DEQ1ZKTnT-22" value="" style="html=1;verticalAlign=bottom;labelBackgroundColor=none;endArrow=block;endFill=1;dashed=1;rounded=0;" parent="FuBq1wFrqD6DEQ1ZKTnT-1" source="FuBq1wFrqD6DEQ1ZKTnT-45" edge="1">
          <mxGeometry width="160" relative="1" as="geometry">
            <mxPoint x="497.7966101694915" y="259.7813036565975" as="sourcePoint" />
            <mxPoint x="223.72881355932202" y="259.7813036565975" as="targetPoint" />
          </mxGeometry>
        </mxCell>
        <mxCell id="FuBq1wFrqD6DEQ1ZKTnT-23" value="itemMessage" style="edgeLabel;html=1;align=center;verticalAlign=middle;resizable=0;points=[];" parent="FuBq1wFrqD6DEQ1ZKTnT-22" vertex="1" connectable="0">
          <mxGeometry x="-0.128" relative="1" as="geometry">
            <mxPoint x="-13" y="-13" as="offset" />
          </mxGeometry>
        </mxCell>
        <mxCell id="FuBq1wFrqD6DEQ1ZKTnT-24" value="" style="html=1;verticalAlign=bottom;labelBackgroundColor=none;endArrow=block;endFill=1;rounded=0;" parent="FuBq1wFrqD6DEQ1ZKTnT-1" target="FuBq1wFrqD6DEQ1ZKTnT-45" edge="1">
          <mxGeometry width="160" relative="1" as="geometry">
            <mxPoint x="223.72881355932202" y="292.8688712241653" as="sourcePoint" />
            <mxPoint x="497.7966101694915" y="292.8688712241653" as="targetPoint" />
          </mxGeometry>
        </mxCell>
        <mxCell id="FuBq1wFrqD6DEQ1ZKTnT-25" value="saveOrder(newOrder)" style="edgeLabel;html=1;align=center;verticalAlign=middle;resizable=0;points=[];" parent="FuBq1wFrqD6DEQ1ZKTnT-24" vertex="1" connectable="0">
          <mxGeometry x="0.1503" y="4" relative="1" as="geometry">
            <mxPoint x="-17" y="-6" as="offset" />
          </mxGeometry>
        </mxCell>
        <mxCell id="FuBq1wFrqD6DEQ1ZKTnT-26" value="" style="html=1;verticalAlign=bottom;labelBackgroundColor=none;endArrow=block;endFill=1;dashed=1;rounded=0;" parent="FuBq1wFrqD6DEQ1ZKTnT-1" source="FuBq1wFrqD6DEQ1ZKTnT-45" edge="1">
          <mxGeometry width="160" relative="1" as="geometry">
            <mxPoint x="497.7966101694915" y="327.8894117647056" as="sourcePoint" />
            <mxPoint x="223.72881355932202" y="327.8894117647056" as="targetPoint" />
          </mxGeometry>
        </mxCell>
        <mxCell id="FuBq1wFrqD6DEQ1ZKTnT-27" value="saveSuccess" style="edgeLabel;html=1;align=center;verticalAlign=middle;resizable=0;points=[];" parent="FuBq1wFrqD6DEQ1ZKTnT-26" vertex="1" connectable="0">
          <mxGeometry x="-0.128" relative="1" as="geometry">
            <mxPoint x="-13" y="-13" as="offset" />
          </mxGeometry>
        </mxCell>
        <mxCell id="FuBq1wFrqD6DEQ1ZKTnT-28" value="" style="html=1;verticalAlign=bottom;labelBackgroundColor=none;endArrow=block;endFill=1;rounded=0;" parent="FuBq1wFrqD6DEQ1ZKTnT-1" target="FuBq1wFrqD6DEQ1ZKTnT-45" edge="1">
          <mxGeometry width="160" relative="1" as="geometry">
            <mxPoint x="223.72881355932202" y="381.40941176470585" as="sourcePoint" />
            <mxPoint x="497.7966101694915" y="381.40941176470585" as="targetPoint" />
          </mxGeometry>
        </mxCell>
        <mxCell id="FuBq1wFrqD6DEQ1ZKTnT-29" value="modifyOrder(order)" style="edgeLabel;html=1;align=center;verticalAlign=middle;resizable=0;points=[];" parent="FuBq1wFrqD6DEQ1ZKTnT-28" vertex="1" connectable="0">
          <mxGeometry x="0.1503" y="4" relative="1" as="geometry">
            <mxPoint x="-17" y="-6" as="offset" />
          </mxGeometry>
        </mxCell>
        <mxCell id="FuBq1wFrqD6DEQ1ZKTnT-30" value="" style="html=1;verticalAlign=bottom;labelBackgroundColor=none;endArrow=block;endFill=1;dashed=1;rounded=0;" parent="FuBq1wFrqD6DEQ1ZKTnT-1" source="FuBq1wFrqD6DEQ1ZKTnT-45" edge="1">
          <mxGeometry width="160" relative="1" as="geometry">
            <mxPoint x="497.7966101694915" y="412.5380604133543" as="sourcePoint" />
            <mxPoint x="223.72881355932202" y="412.5380604133543" as="targetPoint" />
          </mxGeometry>
        </mxCell>
        <mxCell id="FuBq1wFrqD6DEQ1ZKTnT-31" value="order" style="edgeLabel;html=1;align=center;verticalAlign=middle;resizable=0;points=[];" parent="FuBq1wFrqD6DEQ1ZKTnT-30" vertex="1" connectable="0">
          <mxGeometry x="-0.128" relative="1" as="geometry">
            <mxPoint x="-13" y="-13" as="offset" />
          </mxGeometry>
        </mxCell>
        <mxCell id="FuBq1wFrqD6DEQ1ZKTnT-32" value="" style="html=1;verticalAlign=bottom;labelBackgroundColor=none;endArrow=block;endFill=1;rounded=0;" parent="FuBq1wFrqD6DEQ1ZKTnT-1" target="FuBq1wFrqD6DEQ1ZKTnT-45" edge="1">
          <mxGeometry width="160" relative="1" as="geometry">
            <mxPoint x="223.72881355932202" y="441.7337360890301" as="sourcePoint" />
            <mxPoint x="497.7966101694915" y="441.7337360890301" as="targetPoint" />
          </mxGeometry>
        </mxCell>
        <mxCell id="FuBq1wFrqD6DEQ1ZKTnT-33" value="checkOrderItem(orderItem)" style="edgeLabel;html=1;align=center;verticalAlign=middle;resizable=0;points=[];" parent="FuBq1wFrqD6DEQ1ZKTnT-32" vertex="1" connectable="0">
          <mxGeometry x="0.1503" y="4" relative="1" as="geometry">
            <mxPoint x="-17" y="-6" as="offset" />
          </mxGeometry>
        </mxCell>
        <mxCell id="FuBq1wFrqD6DEQ1ZKTnT-34" value="" style="html=1;verticalAlign=bottom;labelBackgroundColor=none;endArrow=block;endFill=1;dashed=1;rounded=0;" parent="FuBq1wFrqD6DEQ1ZKTnT-1" source="FuBq1wFrqD6DEQ1ZKTnT-45" edge="1">
          <mxGeometry width="160" relative="1" as="geometry">
            <mxPoint x="497.7966101694915" y="474.80833068362455" as="sourcePoint" />
            <mxPoint x="223.72881355932202" y="474.80833068362455" as="targetPoint" />
          </mxGeometry>
        </mxCell>
        <mxCell id="FuBq1wFrqD6DEQ1ZKTnT-35" value="itemMessage" style="edgeLabel;html=1;align=center;verticalAlign=middle;resizable=0;points=[];" parent="FuBq1wFrqD6DEQ1ZKTnT-34" vertex="1" connectable="0">
          <mxGeometry x="-0.128" relative="1" as="geometry">
            <mxPoint x="-13" y="-13" as="offset" />
          </mxGeometry>
        </mxCell>
        <mxCell id="FuBq1wFrqD6DEQ1ZKTnT-36" value="" style="html=1;verticalAlign=bottom;labelBackgroundColor=none;endArrow=block;endFill=1;rounded=0;" parent="FuBq1wFrqD6DEQ1ZKTnT-1" target="FuBq1wFrqD6DEQ1ZKTnT-45" edge="1">
          <mxGeometry width="160" relative="1" as="geometry">
            <mxPoint x="223.72881355932202" y="504.0040063593004" as="sourcePoint" />
            <mxPoint x="497.7966101694915" y="504.0040063593004" as="targetPoint" />
          </mxGeometry>
        </mxCell>
        <mxCell id="FuBq1wFrqD6DEQ1ZKTnT-37" value="saveOrder(order)" style="edgeLabel;html=1;align=center;verticalAlign=middle;resizable=0;points=[];" parent="FuBq1wFrqD6DEQ1ZKTnT-36" vertex="1" connectable="0">
          <mxGeometry x="0.1503" y="4" relative="1" as="geometry">
            <mxPoint x="-17" y="-6" as="offset" />
          </mxGeometry>
        </mxCell>
        <mxCell id="FuBq1wFrqD6DEQ1ZKTnT-38" value="" style="html=1;verticalAlign=bottom;labelBackgroundColor=none;endArrow=block;endFill=1;dashed=1;rounded=0;" parent="FuBq1wFrqD6DEQ1ZKTnT-1" source="FuBq1wFrqD6DEQ1ZKTnT-45" edge="1">
          <mxGeometry width="160" relative="1" as="geometry">
            <mxPoint x="497.7966101694915" y="537.0786009538948" as="sourcePoint" />
            <mxPoint x="223.72881355932202" y="537.0786009538948" as="targetPoint" />
          </mxGeometry>
        </mxCell>
        <mxCell id="FuBq1wFrqD6DEQ1ZKTnT-39" value="saveSuccess" style="edgeLabel;html=1;align=center;verticalAlign=middle;resizable=0;points=[];" parent="FuBq1wFrqD6DEQ1ZKTnT-38" vertex="1" connectable="0">
          <mxGeometry x="-0.128" relative="1" as="geometry">
            <mxPoint x="-13" y="-13" as="offset" />
          </mxGeometry>
        </mxCell>
        <mxCell id="FuBq1wFrqD6DEQ1ZKTnT-40" value="" style="html=1;verticalAlign=bottom;labelBackgroundColor=none;endArrow=block;endFill=1;rounded=0;" parent="FuBq1wFrqD6DEQ1ZKTnT-1" target="FuBq1wFrqD6DEQ1ZKTnT-45" edge="1">
          <mxGeometry width="160" relative="1" as="geometry">
            <mxPoint x="223.72881355932202" y="595.4634658187598" as="sourcePoint" />
            <mxPoint x="497.7966101694915" y="595.4634658187598" as="targetPoint" />
          </mxGeometry>
        </mxCell>
        <mxCell id="FuBq1wFrqD6DEQ1ZKTnT-41" value="deleteOrder(order)" style="edgeLabel;html=1;align=center;verticalAlign=middle;resizable=0;points=[];" parent="FuBq1wFrqD6DEQ1ZKTnT-40" vertex="1" connectable="0">
          <mxGeometry x="0.1503" y="4" relative="1" as="geometry">
            <mxPoint x="-17" y="-16" as="offset" />
          </mxGeometry>
        </mxCell>
        <mxCell id="FuBq1wFrqD6DEQ1ZKTnT-42" value="" style="html=1;verticalAlign=bottom;labelBackgroundColor=none;endArrow=block;endFill=1;dashed=1;rounded=0;" parent="FuBq1wFrqD6DEQ1ZKTnT-1" source="FuBq1wFrqD6DEQ1ZKTnT-45" edge="1">
          <mxGeometry width="160" relative="1" as="geometry">
            <mxPoint x="497.7966101694915" y="624.6461685214623" as="sourcePoint" />
            <mxPoint x="223.72881355932202" y="624.6461685214623" as="targetPoint" />
          </mxGeometry>
        </mxCell>
        <mxCell id="FuBq1wFrqD6DEQ1ZKTnT-43" value="deleteSuccess" style="edgeLabel;html=1;align=center;verticalAlign=middle;resizable=0;points=[];" parent="FuBq1wFrqD6DEQ1ZKTnT-42" vertex="1" connectable="0">
          <mxGeometry x="-0.128" relative="1" as="geometry">
            <mxPoint x="-13" y="-13" as="offset" />
          </mxGeometry>
        </mxCell>
        <mxCell id="FuBq1wFrqD6DEQ1ZKTnT-44" value="" style="shape=umlActor;verticalLabelPosition=bottom;verticalAlign=top;html=1;" parent="1" vertex="1">
          <mxGeometry x="350" y="700" width="110" height="118" as="geometry" />
        </mxCell>
        <mxCell id="FuBq1wFrqD6DEQ1ZKTnT-45" value=":System" style="shape=umlLifeline;perimeter=lifelinePerimeter;whiteSpace=wrap;html=1;container=1;collapsible=0;recursiveResize=0;outlineConnect=0;" parent="1" vertex="1">
          <mxGeometry x="630" y="770" width="140" height="790" as="geometry" />
        </mxCell>
      </root>
    </mxGraphModel>
  </diagram>
</mxfile>
